<?xml version="1.0" encoding="UTF-8" standalone="no"?>
<svg
   fill="currentColor"
   stroke="currentColor"
   viewBox="0 0 640 640"
   version="1.1"
   id="svg1"
   sodipodi:docname="help-on.svg"
   xml:space="preserve"
   inkscape:version="1.4.2 (ebf0e940, 2025-05-08)"
   xmlns:inkscape="http://www.inkscape.org/namespaces/inkscape"
   xmlns:sodipodi="http://sodipodi.sourceforge.net/DTD/sodipodi-0.dtd"
   xmlns="http://www.w3.org/2000/svg"
   xmlns:svg="http://www.w3.org/2000/svg"><defs
     id="defs1" /><sodipodi:namedview
     id="namedview1"
     pagecolor="#ffffff"
     bordercolor="#000000"
     borderopacity="0.25"
     inkscape:showpageshadow="2"
     inkscape:pageopacity="0.0"
     inkscape:pagecheckerboard="0"
     inkscape:deskcolor="#d1d1d1"
     inkscape:zoom="0.10433313"
     inkscape:cx="1432.9102"
     inkscape:cy="1255.5935"
     inkscape:window-width="1440"
     inkscape:window-height="773"
     inkscape:window-x="0"
     inkscape:window-y="25"
     inkscape:window-maximized="1"
     inkscape:current-layer="svg1" /><!--!Font Awesome Free v7.0.0 by @fontawesome - https://fontawesome.com License - https://fontawesome.com/license/free Copyright 2025 Fonticons, Inc.--><path
     d="m 288.48074,168.00323 c 6.20646,-3.14155 13.71551,-2.45194 19.23237,1.76232 l 245.1936,183.81858 c 6.35971,4.75063 8.88827,13.02591 6.43634,20.53497 -2.45194,7.50905 -9.50126,12.56617 -17.47005,12.56617 H 425.17617 l 68.11785,136.15907 c 6.05322,12.10644 1.14934,26.81805 -10.95709,32.87127 -12.10643,6.05322 -26.81805,1.14935 -32.87127,-10.95709 l -68.11785,-136.15907 -69.9568,93.32681 c -4.75062,6.35971 -13.02591,8.88827 -20.53496,6.43634 -7.50905,-2.45194 -12.56617,-9.50126 -12.56617,-17.39343 v -306.492 c 0,-6.97269 3.90777,-13.3324 10.19086,-16.47394 z"
     id="path1-6"
     style="fill:currentColor;stroke:currentColor;stroke-width:0.76623" /><path
     d="m 73.795201,420.42996 c 0,-26.07869 21.15818,-47.23687 47.236889,-47.23687 26.07868,0 47.23687,21.15818 47.23687,47.23687 0,21.01056 -13.72822,38.8228 -32.72138,44.97343 -13.97424,4.52687 -30.26113,17.36939 -30.26113,37.69109 v 11.80921 c 0,8.7093 7.03634,15.74563 15.74564,15.74563 8.70929,0 15.74562,-7.03633 15.74562,-15.74563 v -11.80921 c 0,-0.83648 0.29523,-2.01741 1.72218,-3.59197 1.47615,-1.62377 3.8872,-3.19833 6.74109,-4.13323 31.63886,-10.18545 54.51922,-39.8561 54.51922,-74.93932 0,-43.49728 -35.23083,-78.72812 -78.72811,-78.72812 -43.497309,0 -78.728139,35.23084 -78.728139,78.72812 0,8.7093 7.03633,15.74562 15.74563,15.74562 8.70929,0 15.74562,-7.03632 15.74562,-15.74562 z m 47.236889,173.20185 c 10.87432,0 19.68203,-8.80771 19.68203,-19.68203 0,-10.87432 -8.80771,-19.68203 -19.68203,-19.68203 -10.87433,0 -19.68205,8.80771 -19.68205,19.68203 0,10.87432 8.80772,19.68203 19.68205,19.68203 z"
     id="path1"
     style="stroke-width:0.492051" /></svg>
